<?xml version="1.0" standalone="no"?>
<!DOCTYPE svg PUBLIC "-//W3C//DTD SVG 20010904//EN"
 "http://www.w3.org/TR/2001/REC-SVG-20010904/DTD/svg10.dtd">
<svg version="1.0" xmlns="http://www.w3.org/2000/svg"
 width="92.000000pt" height="92.000000pt" viewBox="0 0 92.000000 92.000000"
 preserveAspectRatio="xMidYMid meet">
<metadata>
Created by potrace 1.14, written by Peter Selinger 2001-2017
</metadata>
<g transform="translate(0.000000,92.000000) scale(0.100000,-0.100000)"
fill="#000000" stroke="none">
<path d="M383 902 c-128 -65 -143 -233 -27 -315 76 -53 166 -45 233 22 44 44
60 97 49 160 -20 114 -154 184 -255 133z"/>
<path d="M115 640 c-45 -10 -81 -37 -99 -75 -45 -95 20 -195 127 -195 40 0 52
5 87 38 22 22 41 46 41 55 1 10 2 27 3 40 7 80 -79 154 -159 137z"/>
<path d="M778 645 c-2 -2 -15 -5 -28 -7 -85 -11 -133 -131 -84 -206 56 -86
195 -79 238 12 40 84 0 169 -92 195 -17 5 -32 8 -34 6z"/>
<path d="M417 496 c-48 -18 -62 -29 -82 -72 -56 -119 86 -244 196 -171 88 59
86 187 -4 233 -43 23 -67 25 -110 10z"/>
<path d="M88 306 c-27 -20 -46 -63 -40 -91 8 -42 46 -75 87 -75 48 0 95 45 95
90 0 66 -91 115 -142 76z"/>
<path d="M716 289 c-35 -41 -34 -83 3 -120 32 -32 82 -39 113 -15 74 56 39
165 -54 166 -28 0 -42 -7 -62 -31z"/>
<path d="M435 179 c-39 -11 -64 -46 -65 -87 0 -45 46 -92 90 -92 44 0 90 47
90 93 0 59 -57 102 -115 86z"/>
</g>
</svg>
